<svg xmlns="http://www.w3.org/2000/svg" viewBox="0 0 600 60" width="600" height="60">
	<svg viewBox="0 0 60 60" width="60" height="60">
		<path d="M46.1 3.4c-.3-.7-.5-.6-.3.1 2.9 7.8 3.1 16.4.8 24.3-.6 2-1.3 3.9-2.2 5.7-.8 1.8-1.9 3.5-3.2 5.1-2.6 3.1-5.7 5.7-9.3 7.5-.9.5-1.7.9-2.3 1.2-.6-1.4-1.2-2.8-2-4.2-.1-.2-.3-.4-.6-.4s-.5.1-.6.3c-.7 1.1-2.4 2.6-3.1 3.2-1.7 1.6-3.1 2.7-5.2 3.8-.3.1-.4.4-.4.7 0 .3.2.5.5.6 2.3.7 4.6 1.4 7.1 1.9 2.4.4 4.2.9 5.4 1.3h.5c.2 0 .3-.2.4-.3 0 0 0-.1.1-.1.1-.1.1-.3 0-.4-.3-1.6-.8-3.1-1.4-4.7.7-.1 1.6-.4 2.6-.9 3.8-2.1 7.1-5 9.7-8.4 1.3-1.7 2.4-3.6 3.2-5.6.9-1.9 1.5-4 2-6 2.2-8.2 1.5-17-1.7-24.7zM27 44.7l.3.6c-.1-.1-.3-.2-.4-.2h-.2c-.1 0-.1.1-.2.1l.5-.5zM21.6 50c-.3.2-.4.4-.3.7-.3-.1-.6-.2-1-.3.5-.3 1-.7 1.5-1 0 .1.1.1.1.2.1.1.1.2.2.3-.2 0-.3.1-.5.1zm1.3-1.4c.5-.4 1-.9 1.5-1.3.6-.5 1.2-1.1 1.8-1.7-.1.1-.1.3-.1.4 0 .5.1 1 .3 1.6.1.5.2 1.1.3 1.7-.5-.6-1-1.1-1.1-1.3-.1-.3-.5-.5-.8-.4-.3.1-.6.4-.5.7l.1 1.6c-.5-.3-.9-.6-1.3-1.1-.1-.1-.2-.1-.2-.2zm2.8 3.2c-.9-.2-1.7-.3-2.5-.6.1-.1.2-.2.2-.3.3.2.6.3.9.5.4.2.7.2 1 0 .2-.1.5-.4.5-1 .4.4.8.8 1 .9.2.2.4.2.6.2.2 0 .4-.2.5-.4.1-.2.2-.5.2-.8.3.7.7 1.5 1.1 2.3-.9-.2-2.1-.5-3.5-.8z" fill="#000000"/>
	</svg>
	<svg viewBox="0 0 60 60" width="60" height="60" x="60">
		<path d="M46.1 3.4c-.3-.7-.5-.6-.3.1 2.9 7.8 3.1 16.4.8 24.3-.6 2-1.3 3.9-2.2 5.7-.8 1.8-1.882 3.535-3.2 5.1-3.563 3.923-7.136 6.506-10.841 8.253-.918.483-1.718.883-2.318 1.148-.6-1.4-1.2-2.8-2-4.2-.1-.2-.3-.4-.6-.4s-.5.1-.6.3c-.7 1.1-2.4 2.6-3.1 3.2-1.7 1.6-3.1 2.7-5.2 3.8-.3.1-.4.4-.4.7 0 .3.2.5.5.6 2.3.7 4.6 1.4 7.1 1.9 2.4.4 4.2.9 5.4 1.3h.5c.2 0 .3-.2.4-.3 0 0 0-.1.1-.1.1-.1.1-.3 0-.4-.3-1.6-.8-3.1-1.4-4.7.7-.1 1.618-.365 2.635-.83 4.098-1.96 8.291-5.368 11.242-9.171 1.3-1.7 2.4-3.6 3.2-5.6.9-1.9 1.5-4 2-6C50 19.9 49.3 11.1 46.1 3.4zM25.423 45.401l.3.6c-.1-.1-.3-.2-.4-.2h-.2c-.1 0-.1.1-.2.1l.5-.5zm-5.4 5.3c-.3.2-.4.4-.3.7-.3-.1-.6-.2-1-.3.5-.3 1-.7 1.5-1 0 .1.1.1.1.2.1.1.1.2.2.3-.2 0-.3.1-.5.1zm1.3-1.4c.5-.4 1-.9 1.5-1.3.6-.5 1.2-1.1 1.8-1.7-.1.1-.1.3-.1.4 0 .5.1 1 .3 1.6.1.5.2 1.1.3 1.7-.5-.6-1-1.1-1.1-1.3-.1-.3-.5-.5-.8-.4-.3.1-.6.4-.5.7l.1 1.6c-.5-.3-.9-.6-1.3-1.1-.1-.1-.2-.1-.2-.2zm2.8 3.2c-.9-.2-1.7-.3-2.5-.6.1-.1.2-.2.2-.3.3.2.6.3.9.5.4.2.7.2 1 0 .2-.1.5-.4.5-1 .4.4.8.8 1 .9.2.2.4.2.6.2.2 0 .4-.2.5-.4.1-.2.2-.5.2-.8.3.7.7 1.5 1.1 2.3-.9-.2-2.1-.5-3.5-.8z" fill="#000000"/>
	</svg>
	<svg viewBox="0 0 60 60" width="60" height="60" x="120">
		<path d="M46.1 3.4c-.3-.7-.5-.6-.3.1 2.9 7.8 3.1 16.4.8 24.3-.6 2-1.3 3.9-2.2 5.7-.8 1.8-1.83 3.639-3.2 5.1-6.424 6.368-11.401 8.898-15.418 10.49-.97.43-1.77.83-2.37.991-.6-1.4-1.2-2.8-2-4.2-.1-.2-.3-.4-.6-.4s-.5.1-.6.3c-.7 1.1-2.4 2.6-3.1 3.2-1.7 1.6-3.1 2.7-5.2 3.8-.3.1-.4.4-.4.7 0 .3.2.5.5.6 2.3.7 4.6 1.4 7.1 1.9 2.4.4 4.2.9 5.4 1.3h.5c.2 0 .3-.2.4-.3 0 0 0-.1.1-.1.1-.1.1-.3 0-.4-.3-1.6-.8-3.1-1.4-4.7.7-.1 1.67-.261 2.739-.622 4.982-1.544 11.828-6.46 15.819-11.459 1.3-1.7 2.4-3.6 3.2-5.6.9-1.9 1.5-4 2-6 2.13-8.2 1.43-17-1.77-24.7zM20.743 47.481l.3.6c-.1-.1-.3-.2-.4-.2h-.2c-.1 0-.1.1-.2.1l.5-.5zm-5.4 5.3c-.3.2-.4.4-.3.7-.3-.1-.6-.2-1-.3.5-.3 1-.7 1.5-1 0 .1.1.1.1.2.1.1.1.2.2.3-.2 0-.3.1-.5.1zm1.3-1.4c.5-.4 1-.9 1.5-1.3.6-.5 1.2-1.1 1.8-1.7-.1.1-.1.3-.1.4 0 .5.1 1 .3 1.6.1.5.2 1.1.3 1.7-.5-.6-1-1.1-1.1-1.3-.1-.3-.5-.5-.8-.4-.3.1-.6.4-.5.7l.1 1.6c-.5-.3-.9-.6-1.3-1.1-.1-.1-.2-.1-.2-.2zm2.8 3.2c-.9-.2-1.7-.3-2.5-.6.1-.1.2-.2.2-.3.3.2.6.3.9.5.4.2.7.2 1 0 .2-.1.5-.4.5-1 .4.4.8.8 1 .9.2.2.4.2.6.2.2 0 .4-.2.5-.4.1-.2.2-.5.2-.8.3.7.7 1.5 1.1 2.3-.9-.2-2.1-.5-3.5-.8z" fill="#000000"/>
	</svg>
	<svg viewBox="0 0 60 60" width="60" height="60" x="180">
		<path d="M46.1 3.4c-.3-.7-.5-.6-.3.1 2.9 7.8 3.1 16.4.8 24.3-.6 2-1.3 3.9-2.2 5.7-.8 1.8-1.808 3.684-3.2 5.1-7.664 7.428-13.25 9.936-17.403 11.459-.992.408-1.792.808-2.392.924-.6-1.4-1.2-2.8-2-4.2-.1-.2-.3-.4-.6-.4s-.5.1-.6.3c-.7 1.1-2.4 2.6-3.1 3.2-1.7 1.6-3.1 2.7-5.2 3.8-.3.1-.4.4-.4.7 0 .3.2.5.5.6 2.3.7 4.6 1.4 7.1 1.9 2.4.4 4.2.9 5.4 1.3h.5c.2 0 .3-.2.4-.3 0 0 0-.1.1-.1.1-.1.1-.3 0-.4-.3-1.6-.8-3.1-1.4-4.7.7-.1 1.692-.216 2.784-.532 5.366-1.363 13.362-6.933 17.803-12.451 1.3-1.7 2.4-3.6 3.2-5.6.9-1.9 1.5-4 2-6C50 19.9 49.3 11.1 46.1 3.4zM18.713 48.383l.3.6c-.1-.1-.3-.2-.4-.2h-.2c-.1 0-.1.1-.2.1l.5-.5zm-5.4 5.3c-.3.2-.4.4-.3.7-.3-.1-.6-.2-1-.3.5-.3 1-.7 1.5-1 0 .1.1.1.1.2.1.1.1.2.2.3-.2 0-.3.1-.5.1zm1.3-1.4c.5-.4 1-.9 1.5-1.3.6-.5 1.2-1.1 1.8-1.7-.1.1-.1.3-.1.4 0 .5.1 1 .3 1.6.1.5.2 1.1.3 1.7-.5-.6-1-1.1-1.1-1.3-.1-.3-.5-.5-.8-.4-.3.1-.6.4-.5.7l.1 1.6c-.5-.3-.9-.6-1.3-1.1-.1-.1-.2-.1-.2-.2zm2.8 3.2c-.9-.2-1.7-.3-2.5-.6.1-.1.2-.2.2-.3.3.2.6.3.9.5.4.2.7.2 1 0 .2-.1.5-.4.5-1 .4.4.8.8 1 .9.2.2.4.2.6.2.2 0 .4-.2.5-.4.1-.2.2-.5.2-.8.3.7.7 1.5 1.1 2.3-.9-.2-2.1-.5-3.5-.8z" fill="#000000"/>
	</svg>
	<svg viewBox="0 0 60 60" width="60" height="60" x="240">
		<path d="M46.1 3.4c-.3-.7-.5-.6-.3.1 2.9 7.8 3.1 16.4.8 24.3-.6 2-1.3 3.9-2.2 5.7-.8 1.8-1.801 3.699-3.2 5.1-8.061 7.767-13.842 10.268-18.038 11.77-.999.4-1.799.8-2.399.902-.6-1.4-1.2-2.8-2-4.2-.1-.2-.3-.4-.6-.4s-.5.1-.6.3c-.7 1.1-2.4 2.6-3.1 3.2-1.7 1.6-3.1 2.7-5.2 3.8-.3.1-.4.4-.4.7 0 .3.2.5.5.6 2.3.7 4.6 1.4 7.1 1.9 2.4.4 4.2.9 5.4 1.3h.5c.2 0 .3-.2.4-.3 0 0 0-.1.1-.1.1-.1.1-.3 0-.4-.3-1.6-.8-3.1-1.4-4.7.7-.1 1.699-.202 2.798-.503 5.488-1.306 13.852-7.085 18.438-12.769 1.3-1.7 2.4-3.6 3.2-5.6.9-1.9 1.5-4 2-6C50 19.9 49.3 11.1 46.1 3.4zM18.063 48.672l.3.6c-.1-.1-.3-.2-.4-.2h-.2c-.1 0-.1.1-.2.1l.5-.5zm-5.4 5.3c-.3.2-.4.4-.3.7-.3-.1-.6-.2-1-.3.5-.3 1-.7 1.5-1 0 .1.1.1.1.2.1.1.1.2.2.3-.2 0-.3.1-.5.1zm1.3-1.4c.5-.4 1-.9 1.5-1.3.6-.5 1.2-1.1 1.8-1.7-.1.1-.1.3-.1.4 0 .5.1 1 .3 1.6.1.5.2 1.1.3 1.7-.5-.6-1-1.1-1.1-1.3-.1-.3-.5-.5-.8-.4-.3.1-.6.4-.5.7l.1 1.6c-.5-.3-.9-.6-1.3-1.1-.1-.1-.2-.1-.2-.2zm2.8 3.2c-.9-.2-1.7-.3-2.5-.6.1-.1.2-.2.2-.3.3.2.6.3.9.5.4.2.7.2 1 0 .2-.1.5-.4.5-1 .4.4.8.8 1 .9.2.2.4.2.6.2.2 0 .4-.2.5-.4.1-.2.2-.5.2-.8.3.7.7 1.5 1.1 2.3-.9-.2-2.1-.5-3.5-.8z" fill="#000000"/>
	</svg>
	<svg viewBox="0 0 60 60" width="60" height="60" x="300">
		<path d="M46.1 3.4c-.3-.7-.5-.6-.3.1 2.9 7.8 3.1 16.4.8 24.3-.6 2-1.3 3.9-2.2 5.7-.8 1.8-1.803 3.693-3.2 5.1-7.92 7.646-13.631 10.149-17.811 11.659-.997.403-1.797.803-2.397.91-.6-1.4-1.2-2.8-2-4.2-.1-.2-.3-.4-.6-.4s-.5.1-.6.3c-.7 1.1-2.4 2.6-3.1 3.2-1.7 1.6-3.1 2.7-5.2 3.8-.3.1-.4.4-.4.7 0 .3.2.5.5.6 2.3.7 4.6 1.4 7.1 1.9 2.4.4 4.2.9 5.4 1.3h.5c.2 0 .3-.2.4-.3 0 0 0-.1.1-.1.1-.1.1-.3 0-.4-.3-1.6-.8-3.1-1.4-4.7.7-.1 1.697-.207 2.793-.513 5.445-1.327 13.677-7.031 18.212-12.656 1.3-1.7 2.4-3.6 3.2-5.6.9-1.9 1.5-4 2-6C50 19.9 49.3 11.1 46.1 3.4zM18.295 48.569l.3.6c-.1-.1-.3-.2-.4-.2h-.2c-.1 0-.1.1-.2.1l.5-.5zm-5.4 5.3c-.3.2-.4.4-.3.7-.3-.1-.6-.2-1-.3.5-.3 1-.7 1.5-1 0 .1.1.1.1.2.1.1.1.2.2.3-.2 0-.3.1-.5.1zm1.3-1.4c.5-.4 1-.9 1.5-1.3.6-.5 1.2-1.1 1.8-1.7-.1.1-.1.3-.1.4 0 .5.1 1 .3 1.6.1.5.2 1.1.3 1.7-.5-.6-1-1.1-1.1-1.3-.1-.3-.5-.5-.8-.4-.3.1-.6.4-.5.7l.1 1.6c-.5-.3-.9-.6-1.3-1.1-.1-.1-.2-.1-.2-.2zm2.8 3.2c-.9-.2-1.7-.3-2.5-.6.1-.1.2-.2.2-.3.3.2.6.3.9.5.4.2.7.2 1 0 .2-.1.5-.4.5-1 .4.4.8.8 1 .9.2.2.4.2.6.2.2 0 .4-.2.5-.4.1-.2.2-.5.2-.8.3.7.7 1.5 1.1 2.3-.9-.2-2.1-.5-3.5-.8z" fill="#000000"/>
	</svg>
	<svg viewBox="0 0 60 60" width="60" height="60" x="360">
		<path d="M46.1 3.4c-.3-.7-.5-.6-.3.1 2.9 7.8 3.1 16.4.8 24.3-.6 2-1.3 3.9-2.2 5.7-.8 1.8-1.846 3.609-3.2 5.1-5.585 5.651-10.151 8.197-14.076 9.834-.954.446-1.754.846-2.354 1.037-.6-1.4-1.2-2.8-2-4.2-.1-.2-.3-.4-.6-.4s-.5.1-.6.3c-.7 1.1-2.4 2.6-3.1 3.2-1.7 1.6-3.1 2.7-5.2 3.8-.3.1-.4.4-.4.7 0 .3.2.5.5.6 2.3.7 4.6 1.4 7.1 1.9 2.4.4 4.2.9 5.4 1.3h.5c.2 0 .3-.2.4-.3 0 0 0-.1.1-.1.1-.1.1-.3 0-.4-.3-1.6-.8-3.1-1.4-4.7.7-.1 1.654-.291 2.708-.683 4.723-1.666 10.791-6.14 14.476-10.788 1.3-1.7 2.4-3.6 3.2-5.6.9-1.9 1.5-4 2-6C50 19.9 49.3 11.1 46.1 3.4zM22.115 46.871l.3.6c-.1-.1-.3-.2-.4-.2h-.2c-.1 0-.1.1-.2.1l.5-.5zm-5.4 5.3c-.3.2-.4.4-.3.7-.3-.1-.6-.2-1-.3.5-.3 1-.7 1.5-1 0 .1.1.1.1.2.1.1.1.2.2.3-.2 0-.3.1-.5.1zm1.3-1.4c.5-.4 1-.9 1.5-1.3.6-.5 1.2-1.1 1.8-1.7-.1.1-.1.3-.1.4 0 .5.1 1 .3 1.6.1.5.2 1.1.3 1.7-.5-.6-1-1.1-1.1-1.3-.1-.3-.5-.5-.8-.4-.3.1-.6.4-.5.7l.1 1.6c-.5-.3-.9-.6-1.3-1.1-.1-.1-.2-.1-.2-.2zm2.8 3.2c-.9-.2-1.7-.3-2.5-.6.1-.1.2-.2.2-.3.3.2.6.3.9.5.4.2.7.2 1 0 .2-.1.5-.4.5-1 .4.4.8.8 1 .9.2.2.4.2.6.2.2 0 .4-.2.5-.4.1-.2.2-.5.2-.8.3.7.7 1.5 1.1 2.3-.9-.2-2.1-.5-3.5-.8z" fill="#000000"/>
	</svg>
	<svg viewBox="0 0 60 60" width="60" height="60" x="420">
		<path d="M46.1 3.4c-.3-.7-.5-.6-.3.1 2.9 7.8 3.1 16.4.8 24.3-.6 2-1.3 3.9-2.2 5.7-.8 1.8-1.884 3.533-3.2 5.1-3.496 3.865-7.036 6.449-10.733 8.2-.917.484-1.717.884-2.317 1.151-.6-1.4-1.2-2.8-2-4.2-.1-.2-.3-.4-.6-.4s-.5.1-.6.3c-.7 1.1-2.4 2.6-3.1 3.2-1.7 1.6-3.1 2.7-5.2 3.8-.3.1-.4.4-.4.7 0 .3.2.5.5.6 2.3.7 4.6 1.4 7.1 1.9 2.4.4 4.2.9 5.4 1.3h.5c.2 0 .3-.2.4-.3 0 0 0-.1.1-.1.1-.1.1-.3 0-.4-.3-1.6-.8-3.1-1.4-4.7.7-.1 1.617-.367 2.633-.834 4.077-1.97 8.208-5.342 11.133-9.117 1.3-1.7 2.4-3.6 3.2-5.6.9-1.9 1.5-4 2-6C50 19.9 49.3 11.1 46.1 3.4zM25.534 45.351l.3.6c-.1-.1-.3-.2-.4-.2h-.2c-.1 0-.1.1-.2.1l.5-.5zm-5.4 5.3c-.3.2-.4.4-.3.7-.3-.1-.6-.2-1-.3.5-.3 1-.7 1.5-1 0 .1.1.1.1.2.1.1.1.2.2.3-.2 0-.3.1-.5.1zm1.3-1.4c.5-.4 1-.9 1.5-1.3.6-.5 1.2-1.1 1.8-1.7-.1.1-.1.3-.1.4 0 .5.1 1 .3 1.6.1.5.2 1.1.3 1.7-.5-.6-1-1.1-1.1-1.3-.1-.3-.5-.5-.8-.4-.3.1-.6.4-.5.7l.1 1.6c-.5-.3-.9-.6-1.3-1.1-.1-.1-.2-.1-.2-.2zm2.8 3.2c-.9-.2-1.7-.3-2.5-.6.1-.1.2-.2.2-.3.3.2.6.3.9.5.4.2.7.2 1 0 .2-.1.5-.4.5-1 .4.4.8.8 1 .9.2.2.4.2.6.2.2 0 .4-.2.5-.4.1-.2.2-.5.2-.8.3.7.7 1.5 1.1 2.3-.9-.2-2.1-.5-3.5-.8z" fill="#000000"/>
	</svg>
	<svg viewBox="0 0 60 60" width="60" height="60" x="480">
		<path d="M46.1 3.4c-.3-.7-.5-.6-.3.1 2.9 7.8 3.1 16.4.8 24.3-.6 2-1.3 3.9-2.2 5.7-.8 1.8-1.897 3.506-3.2 5.1-2.772 3.247-5.956 5.844-9.575 7.634-.903.497-1.703.897-2.303 1.191-.6-1.4-1.2-2.8-2-4.2-.1-.2-.3-.4-.6-.4s-.5.1-.6.3c-.7 1.1-2.4 2.6-3.1 3.2-1.7 1.6-3.1 2.7-5.2 3.8-.3.1-.4.4-.4.7 0 .3.2.5.5.6 2.3.7 4.6 1.4 7.1 1.9 2.4.4 4.2.9 5.4 1.3h.5c.2 0 .3-.2.4-.3 0 0 0-.1.1-.1.1-.1.1-.3 0-.4-.3-1.6-.8-3.1-1.4-4.7.7-.1 1.603-.394 2.606-.888 3.854-2.075 7.313-5.065 9.975-8.537 1.3-1.7 2.4-3.6 3.2-5.6.9-1.9 1.5-4 2-6C50 19.9 49.3 11.1 46.1 3.4zM26.719 44.825l.3.6c-.1-.1-.3-.2-.4-.2h-.2c-.1 0-.1.1-.2.1l.5-.5zm-5.4 5.3c-.3.2-.4.4-.3.7-.3-.1-.6-.2-1-.3.5-.3 1-.7 1.5-1 0 .1.1.1.1.2.1.1.1.2.2.3-.2 0-.3.1-.5.1zm1.3-1.4c.5-.4 1-.9 1.5-1.3.6-.5 1.2-1.1 1.8-1.7-.1.1-.1.3-.1.4 0 .5.1 1 .3 1.6.1.5.2 1.1.3 1.7-.5-.6-1-1.1-1.1-1.3-.1-.3-.5-.5-.8-.4-.3.1-.6.4-.5.7l.1 1.6c-.5-.3-.9-.6-1.3-1.1-.1-.1-.2-.1-.2-.2zm2.8 3.2c-.9-.2-1.7-.3-2.5-.6.1-.1.2-.2.2-.3.3.2.6.3.9.5.4.2.7.2 1 0 .2-.1.5-.4.5-1 .4.4.8.8 1 .9.2.2.4.2.6.2.2 0 .4-.2.5-.4.1-.2.2-.5.2-.8.3.7.7 1.5 1.1 2.3-.9-.2-2.1-.5-3.5-.8z" fill="#000000"/>
	</svg>
	<svg viewBox="0 0 60 60" width="60" height="60" x="540">
		<path d="M46.1 3.4c-.3-.7-.5-.6-.3.1 2.9 7.8 3.1 16.4.8 24.3-.6 2-1.3 3.9-2.2 5.7-.8 1.8-1.9 3.5-3.2 5.1-2.6 3.1-5.7 5.7-9.3 7.5-.9.5-1.7.9-2.3 1.2-.6-1.4-1.2-2.8-2-4.2-.1-.2-.3-.4-.6-.4s-.5.1-.6.3c-.7 1.1-2.4 2.6-3.1 3.2-1.7 1.6-3.1 2.7-5.2 3.8-.3.1-.4.4-.4.7 0 .3.2.5.5.6 2.3.7 4.6 1.4 7.1 1.9 2.4.4 4.2.9 5.4 1.3h.5c.2 0 .3-.2.4-.3 0 0 0-.1.1-.1.1-.1.1-.3 0-.4-.3-1.6-.8-3.1-1.4-4.7.7-.1 1.6-.4 2.6-.9 3.8-2.1 7.1-5 9.7-8.4 1.3-1.7 2.4-3.6 3.2-5.6.9-1.9 1.5-4 2-6 2.2-8.2 1.5-17-1.7-24.7zM27 44.7l.3.6c-.1-.1-.3-.2-.4-.2h-.2c-.1 0-.1.1-.2.1l.5-.5zM21.6 50c-.3.2-.4.4-.3.7-.3-.1-.6-.2-1-.3.5-.3 1-.7 1.5-1 0 .1.1.1.1.2.1.1.1.2.2.3-.2 0-.3.1-.5.1zm1.3-1.4c.5-.4 1-.9 1.5-1.3.6-.5 1.2-1.1 1.8-1.7-.1.1-.1.3-.1.4 0 .5.1 1 .3 1.6.1.5.2 1.1.3 1.7-.5-.6-1-1.1-1.1-1.3-.1-.3-.5-.5-.8-.4-.3.1-.6.4-.5.7l.1 1.6c-.5-.3-.9-.6-1.3-1.1-.1-.1-.2-.1-.2-.2zm2.8 3.2c-.9-.2-1.7-.3-2.5-.6.1-.1.2-.2.2-.3.3.2.6.3.9.5.4.2.7.2 1 0 .2-.1.5-.4.5-1 .4.4.8.8 1 .9.2.2.4.2.6.2.2 0 .4-.2.5-.4.1-.2.2-.5.2-.8.3.7.7 1.5 1.1 2.3-.9-.2-2.1-.5-3.5-.8z" fill="#000000"/>
	</svg>
</svg>
