<?xml version="1.0" encoding="utf-8"?>
<!-- Generator: Adobe Illustrator 22.1.0, SVG Export Plug-In . SVG Version: 6.00 Build 0)  -->
<svg version="1.1" id="Layer_1" xmlns="http://www.w3.org/2000/svg" xmlns:xlink="http://www.w3.org/1999/xlink" x="0px" y="0px"
	 viewBox="0 0 62.1 35.2" style="enable-background:new 0 0 62.1 35.2;" xml:space="preserve">
<style type="text/css">
	.st0{fill:#010101;}
</style>
<path class="st0" d="M42,11.9c-1.8-1.1-3.7-2.1-5.7-2.8c-2-0.8-4.1-1.4-6.2-1.7c-4.2-0.6-8.6-0.3-12.8,0.9c-1.1,0.4-1.9,0.8-2.5,1.2
	c-0.7-1.6-1.4-3-2.3-4.3c0-0.1-0.1-0.3-0.3-0.3c-0.1,0.1-0.1,0-0.1,0c-0.1,0-0.4-0.1-0.5,0.1l-0.4,0.4c-0.6,1.1-1.5,2.8-2.9,4.7
	c-1.4,2.1-2.5,4.2-3.7,6.4c-0.1,0.3-0.1,0.6,0.1,0.8s0.5,0.4,0.8,0.2c2.3-0.7,4-0.9,6.4-1c0.9-0.1,3.2-0.2,4.5,0.1
	c0.2,0.1,0.4,0,0.6-0.2c0.2-0.2,0.2-0.5,0.1-0.7c-0.4-1.6-1-3-1.6-4.4c0.6-0.2,1.5-0.5,2.5-0.8c3.8-1.3,7.8-1.6,11.9-1.3
	c2.1,0.2,4,0.6,5.9,1.3c1.9,0.6,3.7,1.5,5.6,2.5c7.2,4,13.2,10.2,16.6,17.7c0.4,0.6,0.6,0.6,0.3-0.1C55.1,22.9,49.4,16.2,42,11.9z
	 M14.8,14.9c0.1-0.1,0.1,0,0.2-0.1l0.1-0.1c0.1-0.1,0.1-0.3,0.1-0.4l0.2,0.6C15.6,14.9,14.8,14.9,14.8,14.9z M8.4,14.7
	c0,0.1,0.1,0.2,0.1,0.4c0.1,0.1,0,0.1,0.1,0.2c-0.6,0.1-1.2,0.2-1.8,0.4C7,15.3,7.1,15,7.3,14.7C7.4,15,7.6,15,8,15
	C8.1,14.8,8.3,14.8,8.4,14.7z M9.9,14.8c-0.1-0.6,0-1.1,0.1-1.7l1.1,1.2c0.1,0.3,0.6,0.3,0.8,0.1c0.3-0.1,0.4-0.6,0.3-0.8
	c-0.1-0.2-0.1-0.9-0.1-1.7c0.4,0.5,0.7,1,1,1.4c0.3,0.6,0.6,1,0.9,1.3c0.1,0.1,0.2,0.2,0.4,0.2c-0.8,0-1.7,0-2.5,0.1
	c-0.6,0.1-1.3,0.1-2,0.1C9.8,15,9.9,14.9,9.9,14.8z M11.5,7.8c0.3,0.8,0.6,1.7,0.8,2.4c-0.2-0.2-0.5-0.4-0.7-0.4
	c-0.2-0.1-0.5-0.1-0.6,0.1c-0.1,0.1-0.3,0.3-0.3,0.6c-0.1,0.2-0.1,0.8-0.1,1.3c-0.4-0.4-0.8-0.4-1.1-0.4c-0.4,0.1-0.6,0.3-0.7,0.7
	c-0.1,0.4-0.2,0.6-0.3,1C8.6,13,8.4,13,8.3,13c0.4-0.8,0.8-1.4,1.3-2.2C10.4,9.6,11,8.5,11.5,7.8z"/>
</svg>
